<svg id="visual" viewBox="0 0 900 600" width="900" height="600" xmlns="http://www.w3.org/2000/svg" xmlns:xlink="http://www.w3.org/1999/xlink" version="1.1"><g stroke-width="1" stroke-linejoin="bevel"><path d="M428 312L491 290L430 208Z" fill="#205a7a" stroke="#205a7a"></path><path d="M491 290L526 196L430 208Z" fill="#112e42" stroke="#112e42"></path><path d="M430 208L306 266L428 312Z" fill="#19435d" stroke="#19435d"></path><path d="M526 196L507 129L430 208Z" fill="#112e42" stroke="#112e42"></path><path d="M430 208L304 195L306 266Z" fill="#00101c" stroke="#00101c"></path><path d="M471 410L593 279L491 290Z" fill="#1d4e6b" stroke="#1d4e6b"></path><path d="M491 290L593 279L526 196Z" fill="#246688" stroke="#246688"></path><path d="M526 196L577 110L507 129Z" fill="#1d4e6b" stroke="#1d4e6b"></path><path d="M401 414L471 410L428 312Z" fill="#112e42" stroke="#112e42"></path><path d="M428 312L471 410L491 290Z" fill="#0c2435" stroke="#0c2435"></path><path d="M304 115L304 195L430 208Z" fill="#297ea6" stroke="#297ea6"></path><path d="M288 364L401 414L428 312Z" fill="#246688" stroke="#246688"></path><path d="M507 129L426 84L430 208Z" fill="#081a28" stroke="#081a28"></path><path d="M593 279L613 177L526 196Z" fill="#246688" stroke="#246688"></path><path d="M507 129L477 0L426 84Z" fill="#297ea6" stroke="#297ea6"></path><path d="M212 365L288 364L186 294Z" fill="#00101c" stroke="#00101c"></path><path d="M306 266L288 364L428 312Z" fill="#297ea6" stroke="#297ea6"></path><path d="M613 177L577 110L526 196Z" fill="#205a7a" stroke="#205a7a"></path><path d="M426 84L304 115L430 208Z" fill="#112e42" stroke="#112e42"></path><path d="M304 195L202 217L306 266Z" fill="#0c2435" stroke="#0c2435"></path><path d="M595 505L636 408L471 410Z" fill="#1d4e6b" stroke="#1d4e6b"></path><path d="M471 410L636 408L593 279Z" fill="#081a28" stroke="#081a28"></path><path d="M593 279L684 194L613 177Z" fill="#1d4e6b" stroke="#1d4e6b"></path><path d="M304 115L202 217L304 195Z" fill="#15384f" stroke="#15384f"></path><path d="M730 312L684 194L593 279Z" fill="#0c2435" stroke="#0c2435"></path><path d="M613 177L725 126L577 110Z" fill="#15384f" stroke="#15384f"></path><path d="M269 478L408 506L401 414Z" fill="#19435d" stroke="#19435d"></path><path d="M401 414L408 506L471 410Z" fill="#19435d" stroke="#19435d"></path><path d="M186 294L288 364L306 266Z" fill="#246688" stroke="#246688"></path><path d="M288 364L269 478L401 414Z" fill="#081a28" stroke="#081a28"></path><path d="M202 217L186 294L306 266Z" fill="#205a7a" stroke="#205a7a"></path><path d="M566 0L477 0L507 129Z" fill="#1d4e6b" stroke="#1d4e6b"></path><path d="M426 84L392 0L304 115Z" fill="#1d4e6b" stroke="#1d4e6b"></path><path d="M566 0L507 129L577 110Z" fill="#081a28" stroke="#081a28"></path><path d="M477 0L392 0L426 84Z" fill="#0c2435" stroke="#0c2435"></path><path d="M304 115L195 70L202 217Z" fill="#00101c" stroke="#00101c"></path><path d="M408 506L471 525L471 410Z" fill="#081a28" stroke="#081a28"></path><path d="M212 365L269 478L288 364Z" fill="#1d4e6b" stroke="#1d4e6b"></path><path d="M408 506L399 600L471 525Z" fill="#081a28" stroke="#081a28"></path><path d="M471 525L595 505L471 410Z" fill="#297ea6" stroke="#297ea6"></path><path d="M712 0L566 0L577 110Z" fill="#00101c" stroke="#00101c"></path><path d="M718 374L730 312L593 279Z" fill="#19435d" stroke="#19435d"></path><path d="M718 374L593 279L636 408Z" fill="#19435d" stroke="#19435d"></path><path d="M715 498L718 374L636 408Z" fill="#0c2435" stroke="#0c2435"></path><path d="M392 0L287 0L304 115Z" fill="#297ea6" stroke="#297ea6"></path><path d="M790 138L725 126L806 193Z" fill="#15384f" stroke="#15384f"></path><path d="M684 194L725 126L613 177Z" fill="#277297" stroke="#277297"></path><path d="M287 0L195 70L304 115Z" fill="#19435d" stroke="#19435d"></path><path d="M95 180L133 317L186 294Z" fill="#277297" stroke="#277297"></path><path d="M186 294L133 317L212 365Z" fill="#1d4e6b" stroke="#1d4e6b"></path><path d="M212 365L176 525L269 478Z" fill="#0c2435" stroke="#0c2435"></path><path d="M95 180L186 294L202 217Z" fill="#246688" stroke="#246688"></path><path d="M718 374L764 301L730 312Z" fill="#297ea6" stroke="#297ea6"></path><path d="M730 312L764 301L684 194Z" fill="#297ea6" stroke="#297ea6"></path><path d="M287 0L234 0L195 70Z" fill="#205a7a" stroke="#205a7a"></path><path d="M133 317L126 377L212 365Z" fill="#297ea6" stroke="#297ea6"></path><path d="M302 600L408 506L269 478Z" fill="#1d4e6b" stroke="#1d4e6b"></path><path d="M302 600L399 600L408 506Z" fill="#205a7a" stroke="#205a7a"></path><path d="M471 525L533 600L595 505Z" fill="#19435d" stroke="#19435d"></path><path d="M399 600L533 600L471 525Z" fill="#205a7a" stroke="#205a7a"></path><path d="M595 505L715 498L636 408Z" fill="#0c2435" stroke="#0c2435"></path><path d="M86 72L95 180L195 70Z" fill="#112e42" stroke="#112e42"></path><path d="M195 70L95 180L202 217Z" fill="#205a7a" stroke="#205a7a"></path><path d="M0 431L85 464L126 377Z" fill="#112e42" stroke="#112e42"></path><path d="M618 600L715 498L595 505Z" fill="#297ea6" stroke="#297ea6"></path><path d="M718 374L836 426L764 301Z" fill="#081a28" stroke="#081a28"></path><path d="M806 193L725 126L684 194Z" fill="#112e42" stroke="#112e42"></path><path d="M725 126L712 0L577 110Z" fill="#19435d" stroke="#19435d"></path><path d="M900 300L806 193L764 301Z" fill="#277297" stroke="#277297"></path><path d="M764 301L806 193L684 194Z" fill="#19435d" stroke="#19435d"></path><path d="M236 600L302 600L269 478Z" fill="#081a28" stroke="#081a28"></path><path d="M812 0L712 0L725 126Z" fill="#1d4e6b" stroke="#1d4e6b"></path><path d="M126 377L176 525L212 365Z" fill="#081a28" stroke="#081a28"></path><path d="M533 600L618 600L595 505Z" fill="#19435d" stroke="#19435d"></path><path d="M765 600L769 491L715 498Z" fill="#19435d" stroke="#19435d"></path><path d="M715 498L769 491L718 374Z" fill="#081a28" stroke="#081a28"></path><path d="M176 525L236 600L269 478Z" fill="#112e42" stroke="#112e42"></path><path d="M73 0L86 72L195 70Z" fill="#297ea6" stroke="#297ea6"></path><path d="M0 297L126 377L133 317Z" fill="#19435d" stroke="#19435d"></path><path d="M126 377L85 464L176 525Z" fill="#246688" stroke="#246688"></path><path d="M176 525L126 600L236 600Z" fill="#081a28" stroke="#081a28"></path><path d="M0 228L133 317L95 180Z" fill="#081a28" stroke="#081a28"></path><path d="M769 491L836 426L718 374Z" fill="#112e42" stroke="#112e42"></path><path d="M618 600L711 600L715 498Z" fill="#277297" stroke="#277297"></path><path d="M769 491L900 464L836 426Z" fill="#112e42" stroke="#112e42"></path><path d="M0 133L0 228L95 180Z" fill="#205a7a" stroke="#205a7a"></path><path d="M0 228L0 297L133 317Z" fill="#00101c" stroke="#00101c"></path><path d="M900 135L812 0L790 138Z" fill="#00101c" stroke="#00101c"></path><path d="M790 138L812 0L725 126Z" fill="#081a28" stroke="#081a28"></path><path d="M900 168L790 138L806 193Z" fill="#297ea6" stroke="#297ea6"></path><path d="M86 72L0 133L95 180Z" fill="#19435d" stroke="#19435d"></path><path d="M234 0L73 0L195 70Z" fill="#205a7a" stroke="#205a7a"></path><path d="M900 377L900 300L764 301Z" fill="#081a28" stroke="#081a28"></path><path d="M0 0L0 133L86 72Z" fill="#19435d" stroke="#19435d"></path><path d="M900 300L900 168L806 193Z" fill="#0c2435" stroke="#0c2435"></path><path d="M0 499L126 600L85 464Z" fill="#112e42" stroke="#112e42"></path><path d="M85 464L126 600L176 525Z" fill="#081a28" stroke="#081a28"></path><path d="M711 600L765 600L715 498Z" fill="#277297" stroke="#277297"></path><path d="M836 426L900 377L764 301Z" fill="#246688" stroke="#246688"></path><path d="M900 464L900 377L836 426Z" fill="#246688" stroke="#246688"></path><path d="M900 168L900 135L790 138Z" fill="#19435d" stroke="#19435d"></path><path d="M0 297L0 431L126 377Z" fill="#246688" stroke="#246688"></path><path d="M900 600L900 464L769 491Z" fill="#00101c" stroke="#00101c"></path><path d="M0 431L0 499L85 464Z" fill="#0c2435" stroke="#0c2435"></path><path d="M73 0L0 0L86 72Z" fill="#246688" stroke="#246688"></path><path d="M900 135L900 0L812 0Z" fill="#297ea6" stroke="#297ea6"></path><path d="M0 499L0 600L126 600Z" fill="#1d4e6b" stroke="#1d4e6b"></path><path d="M765 600L900 600L769 491Z" fill="#19435d" stroke="#19435d"></path></g></svg>